<svg fill='#b2b2ae' height="110pt" viewBox="0 -40 512 512" width="110pt" xmlns="http://www.w3.org/2000/svg"><path d="m40.039062 24.023438h16.015626v15.015624h-16.015626zm0 0"/><path d="m72.070312 24.023438h16.015626v15.015624h-16.015626zm0 0"/><path d="m104.101562 24.023438h16.015626v15.015624h-16.015626zm0 0"/><path d="m40.039062 232.226562h136.132813v15.015626h-136.132813zm0 0"/><path d="m112.109375 264.257812h16.015625v15.015626h-16.015625zm0 0"/><path d="m40.039062 264.257812h56.054688v15.015626h-56.054688zm0 0"/><path d="m415.40625 207.203125v-47.046875h-47.046875v15.015625h21.914063l-29.921876 29.671875-32.03125-32.15625-48.046874 47.984375-26.722657-26.753906-10.617187 10.601562 37.339844 37.332031 48.046874-48.050781 31.78125 32.027344 40.289063-40.542969v21.917969zm0 0"/><path d="m408.398438 223.96875c-54.601563 0-99.46875 42.292969-103.328126 96.34375h-290.054687v-257.25h385.375v80.078125h15.015625v-120.117187c0-12.972657-10.050781-23.023438-23.023438-23.023438h-368.359374c-12.96875 0-24.023438 10.050781-24.023438 23.023438v312.304687h305.070312c3.863282 53.050781 48.726563 95.84375 103.328126 95.84375 57.125 0 103.601562-46.476563 103.601562-103.601563s-46.476562-103.601562-103.601562-103.601562zm-384.375-208.953125h368.359374c4.691407 0 8.007813 3.316406 8.007813 8.007813v25.023437h-385.375v-25.023437c0-4.691407 4.316406-8.007813 9.007813-8.007813zm335.828124 312.804687c0-8.46875.695313-17.515624 1.976563-24.523437h38.5625v49.046875h-38.5625c-1.28125-8.007812-1.976563-16.054688-1.976563-24.523438zm55.554688-87.972656c16.015625 4.597656 29.238281 23.410156 36.246094 48.433594h-36.246094zm-15.015625 0v48.433594h-35.242187c7.003906-25.023438 20.226562-43.835938 35.242187-48.433594zm0 127.511719v47.433594c-15.015625-4.597657-28.238281-23.410157-35.242187-47.433594zm15.015625 47.433594v-47.433594h36.246094c-7.007813 24.023437-20.230469 42.835937-36.246094 47.433594zm0-62.449219v-49.046875h39.5625c1.285156 7.007813 1.976562 16.054687 1.976562 24.523437s-.691406 16.515626-1.976562 24.523438zm54.800781-49.046875h23.324219c2.246094 7.007813 3.453125 16.019531 3.453125 24.523437 0 8.503907-1.207031 16.515626-3.453125 24.523438h-23.324219c1.15625-8.007812 1.753907-16.15625 1.753907-24.523438 0-8.367187-.597657-17.515624-1.753907-24.523437zm17.449219-15.015625h-20.402344c-2.949218-12.011719-7.234375-23.011719-12.734375-32.441406-1.253906-2.148438-2.554687-4.0625-3.902343-6.007813 15.925781 8.667969 28.902343 21.433594 37.039062 38.449219zm-121.476562-38.574219c-1.347657 1.941407-2.648438 4.109375-3.902344 6.257813-5.5 9.429687-9.78125 20.304687-12.734375 32.316406h-20.402344c8.136719-17.015625 21.117187-29.90625 37.039063-38.574219zm-42.910157 53.589844h23.324219c-1.160156 7.007813-1.757812 16.15625-1.757812 24.523437 0 8.367188.597656 16.515626 1.757812 24.523438h-23.324219c-2.25-8.007812-3.457031-16.019531-3.457031-24.523438 0-8.503906 1.207031-17.515624 3.457031-24.523437zm5.871094 64.0625h20.402344c2.953125 11.011719 7.234375 22.511719 12.734375 31.941406 1.253906 2.148438 2.558594 4.3125 3.902344 6.257813-15.921876-8.667969-28.902344-22.183594-37.039063-38.199219zm121.476563 38.074219c1.347656-1.945313 2.652343-3.859375 3.902343-6.007813 5.5-9.429687 9.785157-21.054687 12.734375-32.066406h20.402344c-8.136719 16.015625-21.113281 29.40625-37.039062 38.074219zm0 0"/><path d="m231.226562 199.195312v-119.117187h-47.046874v112.109375h-17.015626v-48.046875h-47.046874v48.046875h-17.015626v-80.078125h-47.046874v80.078125h-16.015626v15.015625h159.15625v-112.109375h17.015626v104.101562zm-96.09375-40.039062h17.015626v33.03125h-17.015626zm-64.0625-32.03125h17.015626v65.0625h-17.015626zm0 0"/></svg>